<svg t="1734858555128" class="icon" viewBox="0 0 1024 1024" version="1.1" xmlns="http://www.w3.org/2000/svg" p-id="1954" xmlns:xlink="http://www.w3.org/1999/xlink" width="200" height="200"><path d="M768 1024H256C115.2 1024 0 908.8 0 768V256C0 115.2 115.2 0 256 0h512c140.8 0 256 115.2 256 256v512c0 140.8-115.2 256-256 256z" fill="#10C7C1" p-id="1955"></path><path d="M426.666667 268.8c0 38.4 29.866667 68.266667 68.266666 68.266667s68.266667-29.866667 68.266667-68.266667-29.866667-68.266667-66.133333-68.266667-70.4 32-70.4 68.266667z m-198.4 394.666667c19.2 32 61.866667 44.8 93.866666 25.6 32-19.2 44.8-61.866667 25.6-93.866667-12.8-21.333333-34.133333-34.133333-59.733333-34.133333-23.466667 0-46.933333 12.8-59.733333 34.133333-12.8 21.333333-12.8 46.933333 0 68.266667z m441.6 25.6c21.333333 12.8 46.933333 12.8 68.266666 0s34.133333-34.133333 34.133334-59.733334-12.8-46.933333-34.133334-59.733333c-21.333333-12.8-46.933333-12.8-68.266666 0s-34.133333 34.133333-34.133334 59.733333 12.8 49.066667 34.133334 59.733334z m-260.266667-185.6c0 46.933333 38.4 85.333333 85.333333 85.333333s85.333333-38.4 85.333334-85.333333-38.4-85.333333-85.333334-85.333334-85.333333 38.4-85.333333 85.333334z m209.066667 76.8c23.466667-40.533333 70.4-57.6 115.2-42.666667 12.8-104.533333-44.8-204.8-142.933334-247.466667-10.666667 44.8-49.066667 76.8-96 76.8s-85.333333-32-96-76.8c-96 42.666667-155.733333 142.933333-142.933333 247.466667 42.666667-12.8 91.733333 4.266667 113.066667 44.8 23.466667 40.533333 14.933333 89.6-19.2 121.6 85.333333 64 200.533333 64 285.866666 0-32-32-40.533333-83.2-17.066666-123.733333z m-123.733334 44.8c-66.133333 0-121.6-53.333333-121.6-121.6s53.333333-121.6 121.6-121.6 121.6 53.333333 121.6 121.6-55.466667 121.6-121.6 121.6z" fill="#FFFFFF" p-id="1956"></path></svg>