<svg t="1718773597216" class="icon" viewBox="0 0 1024 1024" version="1.1"
  xmlns="http://www.w3.org/2000/svg" p-id="7041" width="200" height="200">
  <path
    d="M983.5 312.9C906 129.3 724.2 0 512 0 229.5 0 0 228.9 0 512c0 282.5 228.9 512 512 512s512-228.9 512-512c0-94.8-40.5-199.1-40.5-199.1zM76.3 512c0-54.2 10.1-106.7 28-154.4 23.2 13.1 53.6 15.5 53.6 41.7 0 85.8 3 178.2 85.8 179.4 2.4 0 45.9 15.5 66.8 66.8 7.2 17.9 35.8 0 66.8 0 15.5 0 0 25 0 78.7 0 53.6 121.6 135.9 121.6 135.9-0.6 35.2 1.2 64.4 3.6 87C266.4 942.9 76.3 749.8 76.3 512z m540.6 422.6c17.3-69.1 25.6-108.5 61.4-137.7 51.9-42.3 6.6-90-33.4-84.6-31.6 4.8-11.3-36.4-39.3-38.7-27.4-1.8-64.4-54.2-103.7-72.7-20.9-9.5-42.3-35.2-74.5-36.4-28.6-1.2-70.9 23.2-70.9 4.8 0-60.2-6.6-103.1-7.7-120.4-1.2-14.3-9.5-4.8 29.2-3.6 20.9 0.6 10.7-40.5 32.2-42.3 20.3-1.2 69.7 18.5 82.8 10.1 11.3-7.7 85.8 184.8 85.8 31.6 0-17.9-9.5-49.5 0-66.8 39.3-67.9 75.7-123.4 72.7-131.7-1.8-4.8-40.5-8.3-70.3 1.2-10.1 3 3 18.5-11.3 22.1-56 11.9-104.3-14.3-87-39.3 17.3-25.6 81.7-10.7 87-62 3-28.6 6-62.6 7.7-87.6 155.6 23.2 284.9 128.7 340.3 271.2-147.8 107.9-110.3 183.6-61.4 226.5 25.6 22.6 50.1 57.2 66.2 81.7-51.3 135.1-164.5 239.4-305.8 274.6z"
    p-id="7042"></path>
</svg>