<svg t="1734858480222" class="icon" viewBox="0 0 1024 1024" version="1.1" xmlns="http://www.w3.org/2000/svg" p-id="1554" xmlns:xlink="http://www.w3.org/1999/xlink" width="200" height="200"><path d="M768 1024H256C115.2 1024 0 908.8 0 768V256C0 115.2 115.2 0 256 0h512c140.8 0 256 115.2 256 256v512c0 140.8-115.2 256-256 256z" fill="#9F53E6" p-id="1555"></path><path d="M356.266667 550.4H469.333333c19.2 0 32 12.8 32 32v145.066667c0 19.2-19.2 32-38.4 32h-138.666666c-19.2 0-32-12.8-32-32v-145.066667c0-19.2 12.8-32 32-32h32z m241.066666 0h145.066667c19.2 0 32 17.066667 32 36.266667V725.333333c0 19.2-14.933333 34.133333-34.133333 34.133334h-138.666667c-19.2 0-36.266667-12.8-36.266667-32v-145.066667c0-19.2 17.066667-32 36.266667-32H597.333333zM597.333333 277.333333h145.066667c19.2 0 32 10.666667 32 29.866667v145.066667c0 19.2-12.8 32-32 32H597.333333c-19.2 0-32-12.8-32-32v-145.066667c0-17.066667 12.8-29.866667 32-29.866667z m-328.533333 76.8l98.133333-98.133333c12.8-12.8 36.266667-12.8 49.066667 0l98.133333 98.133333c12.8 12.8 12.8 36.266667 0 49.066667l-98.133333 98.133333c-12.8 12.8-36.266667 12.8-49.066667 0l-98.133333-98.133333c-12.8-14.933333-12.8-36.266667 0-49.066667z" fill="#FFFFFF" p-id="1556"></path></svg>