<svg t="1734858497880" class="icon" viewBox="0 0 1024 1024" version="1.1" xmlns="http://www.w3.org/2000/svg" p-id="1723" xmlns:xlink="http://www.w3.org/1999/xlink" width="200" height="200"><path d="M760.082474 1024H253.360825c-139.348454 0-253.360825-114.012371-253.360825-253.360825v-506.721649C0 124.569072 114.012371 10.556701 253.360825 10.556701h506.721649c139.348454 0 253.360825 114.012371 253.360825 253.360825v506.721649c0 139.348454-114.012371 253.360825-253.360825 253.360825z" fill="#1476FF" p-id="1724"></path><path d="M479.274227 757.971134c-16.890722-14.779381-35.892784-31.670103-54.894846-48.560825-19.002062-16.890722-38.004124-33.781443-54.894845-46.449484-19.002062-16.890722-40.115464-33.781443-59.117526-48.560825h-29.558763c-8.445361 0-16.890722-2.11134-23.224742-8.445361-6.334021-6.334021-8.445361-12.668041-8.445361-21.113402v-130.903093c0-10.556701 2.11134-16.890722 8.445361-23.224742 6.334021-6.334021 12.668041-8.445361 23.224742-8.445361h29.558763c31.670103-27.447423 61.228866-50.672165 86.564949-71.785567 10.556701-8.445361 21.113402-19.002062 31.670103-27.447422s21.113402-16.890722 29.558763-23.224743c8.445361-6.334021 14.779381-12.668041 21.113402-19.002062s8.445361-8.445361 10.556701-8.44536c10.556701-8.445361 19.002062-10.556701 25.336082-10.556701 6.334021 0 10.556701 4.22268 14.779382 8.44536 4.22268 6.334021 6.334021 12.668041 8.445361 21.113402 2.11134 8.445361 2.11134 14.779381 2.11134 21.113403v418.04536c0 6.334021-2.11134 12.668041-4.222681 21.113402s-6.334021 12.668041-10.556701 16.890722c-4.22268 4.22268-10.556701 6.334021-19.002062 6.334021-8.445361-2.11134-16.890722-6.334021-27.447422-16.890722z m166.795876-306.14433c6.334021 10.556701 12.668041 19.002062 16.890722 29.558763 4.22268 10.556701 6.334021 23.224742 6.33402 35.892784 0 14.779381-2.11134 25.336082-6.33402 38.004123-4.22268 10.556701-10.556701 21.113402-16.890722 29.558763-2.11134 4.22268-6.334021 6.334021-8.445361 10.556701-2.11134 2.11134-6.334021 4.22268-12.668041 4.222681s-10.556701-2.11134-14.779381-6.334021c-4.22268-4.22268-6.334021-10.556701-6.334021-16.890722 0-2.11134 0-6.334021 2.11134-8.445361 2.11134-4.22268 4.22268-8.445361 6.334021-10.556701 2.11134-4.22268 4.22268-6.334021 6.33402-10.556701l6.334021-12.668041c2.11134-4.22268 2.11134-10.556701 2.11134-16.890721 0-6.334021 0-10.556701-2.11134-16.890722l-6.334021-12.668041c-2.11134-4.22268-4.22268-8.445361-6.33402-10.556701-2.11134-4.22268-4.22268-6.334021-6.334021-10.556701 0-2.11134-2.11134-4.22268-2.11134-8.445361 0-6.334021 2.11134-10.556701 6.334021-16.890722 4.22268-4.22268 10.556701-6.334021 14.779381-6.334021 4.22268 0 8.445361 2.11134 12.668041 4.222681 2.11134 6.334021 6.334021 8.445361 8.445361 12.668041z m29.558763 232.247423c-4.22268 2.11134-8.445361 4.22268-14.779381 4.22268-6.334021 0-12.668041-2.11134-16.890722-8.445361-4.22268-4.22268-8.445361-10.556701-8.445361-16.890721 0-8.445361 2.11134-14.779381 8.445361-19.002062 10.556701-6.334021 19.002062-14.779381 27.447423-23.224742 8.445361-8.445361 14.779381-19.002062 21.113402-29.558763 6.334021-10.556701 10.556701-21.113402 14.779381-33.781444 4.22268-12.668041 4.22268-23.224742 4.22268-35.892783 0-25.336082-6.334021-48.560825-19.002061-69.674227s-29.558763-38.004124-48.560825-52.783505c-6.334021-4.22268-10.556701-12.668041-10.556701-21.113402 0-6.334021 2.11134-12.668041 8.445361-16.890722 4.22268-4.22268 10.556701-8.445361 16.890721-8.445361 6.334021 0 10.556701 2.11134 14.779382 6.334021 12.668041 8.445361 25.336082 19.002062 35.892783 31.670103s21.113402 25.336082 27.447423 38.004124c8.445361 14.779381 14.779381 29.558763 19.002062 44.338144 4.22268 14.779381 6.334021 31.670103 6.33402 48.560825 0 16.890722-2.11134 33.781443-6.33402 48.560825-4.22268 14.779381-10.556701 31.670103-19.002062 44.338144-8.445361 14.779381-16.890722 27.447423-29.558763 38.004124-8.445361 12.668041-19.002062 23.224742-31.670103 31.670103z" fill="#FFFFFF" p-id="1725"></path></svg>