<?xml version="1.0" standalone="no"?><!DOCTYPE svg PUBLIC "-//W3C//DTD SVG 1.1//EN" "http://www.w3.org/Graphics/SVG/1.1/DTD/svg11.dtd"><svg t="1734865215131" class="icon" viewBox="0 0 1024 1024" version="1.1" xmlns="http://www.w3.org/2000/svg" p-id="1216" xmlns:xlink="http://www.w3.org/1999/xlink" width="200" height="200"><path d="M768 1024H256C115.2 1024 0 908.8 0 768V256C0 115.2 115.2 0 256 0h512c140.8 0 256 115.2 256 256v512c0 140.8-115.2 256-256 256z" fill="#FF9A2E" p-id="1217"></path><path d="M755.2 640h-192c-6.4 0-10.666667-4.266667-10.666667-10.666667v-23.466666c0-25.6-19.2-44.8-44.8-44.8h-44.8c-25.6 0-44.8 19.2-44.8 44.8v23.466666c0 6.4-4.266667 10.666667-10.666666 10.666667h-192C189.866667 640 170.666667 661.333333 170.666667 684.8v34.133333c0 25.6 19.2 44.8 44.8 44.8h539.733333c25.6 0 44.8-19.2 44.8-44.8v-34.133333c0-23.466667-19.2-44.8-44.8-44.8z" fill="#FFFFFF" p-id="1218"></path><path d="M507.733333 147.2l51.2 102.4c4.266667 6.4 10.666667 12.8 19.2 12.8l113.066667 17.066667c12.8 2.133333 23.466667 14.933333 21.333333 29.866666 0 4.266667-4.266667 10.666667-6.4 12.8l-81.066666 76.8c-6.4 6.4-8.533333 14.933333-6.4 23.466667l19.2 108.8c2.133333 12.8-6.4 25.6-19.2 29.866667-6.4 2.133333-10.666667 0-14.933334-2.133334l-102.4-53.333333c-6.4-4.266667-14.933333-4.266667-23.466666 0l-102.4 53.333333c-12.8 6.4-27.733333 2.133333-32-10.666666-2.133333-4.266667-2.133333-10.666667-2.133334-14.933334l19.2-108.8c2.133333-8.533333-2.133333-17.066667-6.4-23.466666l-78.933333-76.8c-10.666667-10.666667-10.666667-25.6 0-36.266667 4.266667-4.266667 8.533333-6.4 12.8-6.4l113.066667-17.066667c8.533333-2.133333 14.933333-6.4 19.2-12.8L471.466667 149.333333c6.4-12.8 19.2-17.066667 32-10.666666-2.133333 0 2.133333 4.266667 4.266666 8.533333z" fill="#FFFFFF" p-id="1219"></path></svg>